# xmcd
#
# Track frame offsets:
#	150
#	20017
#	38116
#	51917
#	67903
#	83307
#	97359
#	116687
#	130158
#	148335
#	166341
#	179649
#
# Disc length: 2564 seconds
#
# Revision: 1
# Processed by: cddbd v1.5.2PL0 Copyright (c) Steve Scherf et al.
# Submitted via: audiograbber 1.83.01
#
DISCID=aa0a020c
DTITLE=Chet Atkins, Jerry Reed and Suzy Bogguss - Live in Nashville
DYEAR=1992
DGENRE=Country
TTITLE0=Sneaking around
TTITLE1=All I ever need is you
TTITLE2=Outbound plane
TTITLE3=Ain´t nobody´s business
TTITLE4=Something
TTITLE5=Three little words
TTITLE6=Aces
TTITLE7=Midnight
TTITLE8=Muleskinner blues
TTITLE9=Summertime
TTITLE10=Georgia on my mind
TTITLE11=Goin down the road feelin´ bad
EXTD=
EXTT0=
EXTT1=
EXTT2=
EXTT3=
EXTT4=
EXTT5=
EXTT6=
EXTT7=
EXTT8=
EXTT9=
EXTT10=
EXTT11=
PLAYORDER=
